<svg xmlns="http://www.w3.org/2000/svg" viewBox="0 0 900 400" width="900" height="400" font-family="Segoe UI, Calibri, Arial, sans-serif">
  <rect width="900" height="400" fill="#ffffff"/>
  <text x="20" y="24" font-size="14" font-weight="700" fill="#111">CPU do container durante 5 processamentos sequenciais (amostragem docker stats, ~2 s)</text>
  <text x="20" y="42" font-size="11" fill="#666">13:20:35 a 13:21:36 · 6 vCPU = 600% · fonte: docs/evidence/19-stats-curva.csv</text>

  <line x1="66" y1="300" x2="878" y2="300" stroke="#333" stroke-width="1.2"/>
  <line x1="66" y1="60" x2="66" y2="300" stroke="#333" stroke-width="1.2"/>

  <line x1="66" y1="60" x2="878" y2="60" stroke="#8b0000" stroke-width="1.4" stroke-dasharray="6 3"/>
  <text x="72" y="56" font-size="10" font-weight="700" fill="#8b0000">600%: saturação total da máquina (6 vCPU)</text>

  <line x1="66" y1="260" x2="878" y2="260" stroke="#2e7d32" stroke-width="1.1" stroke-dasharray="4 3"/>
  <text x="72" y="256" font-size="10" fill="#2e7d32">100%: um núcleo (fase de compactação do ZIP)</text>

  <text x="58" y="304" font-size="10" text-anchor="end" fill="#444">0%</text>
  <text x="58" y="264" font-size="10" text-anchor="end" fill="#444">100</text>
  <text x="58" y="224" font-size="10" text-anchor="end" fill="#444">200</text>
  <text x="58" y="184" font-size="10" text-anchor="end" fill="#444">300</text>
  <text x="58" y="144" font-size="10" text-anchor="end" fill="#444">400</text>
  <text x="58" y="104" font-size="10" text-anchor="end" fill="#444">500</text>
  <text x="58" y="64" font-size="10" text-anchor="end" fill="#444">600</text>

  <g fill="#c0392b">
    <rect x="124" y="295" width="18" height="5"/>
    <rect x="150" y="117" width="18" height="183"/>
    <rect x="202" y="110" width="18" height="190"/>
    <rect x="228" y="110" width="18" height="190"/>
    <rect x="254" y="260" width="18" height="40" fill="#2e7d32"/>
    <rect x="306" y="112" width="18" height="188"/>
    <rect x="332" y="118" width="18" height="182"/>
    <rect x="358" y="112" width="18" height="188"/>
    <rect x="384" y="114" width="18" height="186"/>
    <rect x="410" y="236" width="18" height="64"/>
    <rect x="436" y="260" width="18" height="40" fill="#2e7d32"/>
    <rect x="462" y="298" width="18" height="2"/>
    <rect x="488" y="125" width="18" height="175"/>
    <rect x="514" y="123" width="18" height="177"/>
    <rect x="540" y="118" width="18" height="182"/>
    <rect x="566" y="118" width="18" height="182"/>
    <rect x="592" y="110" width="18" height="190"/>
    <rect x="618" y="123" width="18" height="177"/>
    <rect x="644" y="124" width="18" height="176"/>
    <rect x="670" y="114" width="18" height="186"/>
    <rect x="696" y="116" width="18" height="184"/>
    <rect x="722" y="117" width="18" height="183"/>
    <rect x="748" y="166" width="18" height="134"/>
    <rect x="774" y="260" width="18" height="40" fill="#2e7d32"/>
    <rect x="800" y="260" width="18" height="40" fill="#2e7d32"/>
    <rect x="826" y="260" width="18" height="40" fill="#2e7d32"/>
    <rect x="852" y="260" width="18" height="40" fill="#2e7d32"/>
  </g>

  <text x="592" y="104" font-size="10" font-weight="700" text-anchor="middle" fill="#8b0000">475,66%</text>
  <line x1="592" y1="106" x2="592" y2="110" stroke="#8b0000"/>

  <text x="160" y="322" font-size="9.5" text-anchor="middle" fill="#666">12 s</text>
  <text x="215" y="322" font-size="9.5" text-anchor="middle" fill="#666">40 s</text>
  <text x="345" y="322" font-size="9.5" text-anchor="middle" fill="#666">120 s</text>
  <text x="600" y="322" font-size="9.5" text-anchor="middle" fill="#666">480 s (483 frames)</text>
  <text x="825" y="322" font-size="9.5" text-anchor="middle" fill="#666">ZIP</text>

  <rect x="66" y="336" width="812" height="52" rx="4" fill="#fafafa" stroke="#bbb"/>
  <text x="80" y="354" font-size="10.5" font-weight="700" fill="#333">Um único upload consome cerca de 79% da máquina.</text>
  <text x="80" y="368" font-size="10.5" fill="#333">O FFmpeg abre até 29 threads (os PIDs do container sobem de 24 para 53) e a memória vai de 291 MB para 607 MB num só job. Depois do FFmpeg, a compactação fica presa em ~100%, um núcleo, porque archive/zip é sequencial.</text>
  <text x="80" y="383" font-size="10" fill="#666">Consequência: mesmo sem a corrida de diretório, não existe folga de CPU para processar dois vídeos longos ao mesmo tempo nesta instância.</text>

  <rect x="700" y="42" width="12" height="10" fill="#c0392b"/>
  <text x="718" y="51" font-size="10" fill="#333">FFmpeg (multithread)</text>
  <rect x="830" y="42" width="12" height="10" fill="#2e7d32"/>
  <text x="848" y="51" font-size="10" fill="#333">ZIP</text>
</svg>
